<svg xmlns="http://www.w3.org/2000/svg" preserveAspectRatio="xMidYMid" width="23.91" height="29.937" viewBox="0 0 23.91 29.937"><defs><style>.cls-1{fill:#fff;fill-rule:evenodd}</style></defs><path d="M6.505 19.905h12.246c.322 0 .589-.294.589-.686 0-.376-.267-.695-.589-.695H6.505c-.323 0-.583.319-.583.695 0 .392.26.686.583.686zm0 4.465h12.246c.322 0 .589-.302.589-.687 0-.393-.267-.703-.589-.703H6.505c-.323 0-.583.31-.583.703 0 .385.26.687.583.687zm16.428-11.399H6.54l15.776-5.617c.511-.189.813-.826.66-1.431L21.628.788c-.162-.605-.702-.941-1.222-.752L.701 7.019c-.519.196-.813.85-.66 1.455l1.348 5.119.021.082c-.035.139-.077.294-.077.441v14.653c0 .655.442 1.161.996 1.161h20.604c.54 0 .982-.506.982-1.161V14.116c0-.646-.442-1.145-.982-1.145zm-4.351-9.902l1.46-.515.758 2.944-2.906 1.03.688-3.459zm-4.378 1.554l3.073-1.071-.695 3.45-3.053 1.08.675-3.459zM9.832 6.177l3.066-1.088-.681 3.459L9.15 9.635l.682-3.458zM5.46 7.738l3.066-1.079-.688 3.45-3.066 1.08.688-3.451zM2.217 8.891l1.937-.695-.688 3.468-.491.171-.758-2.944zm19.719 18.718H3.319V15.261h18.617v12.348z" class="cls-1"/></svg>