<svg xmlns="http://www.w3.org/2000/svg" preserveAspectRatio="xMidYMid" width="27.25" height="29.969" viewBox="0 0 27.25 29.969"><defs><style>.cls-1{fill:#fff;fill-rule:evenodd}</style></defs><path d="M12.564 15.545L.312 1.968C-.147 1.454-.07.698.522.279c.229-.181.525-.267.83-.267h24.544c.754 0 1.356.533 1.356 1.201 0 .318-.124.601-.373.824L14.666 15.554a.858.858 0 0 1-.23.206v11.785h7.105c.735 0 1.337.549 1.337 1.218 0 .652-.602 1.208-1.337 1.208H5.717c-.745 0-1.337-.556-1.337-1.208 0-.669.592-1.218 1.337-1.218h7.105V15.76l-.038-.025a4.873 4.873 0 0 1-.22-.19zM5.861 4.283h15.536l1.691-1.861H4.17l1.691 1.861zM20.08 5.742H7.187l6.437 7.144 6.456-7.144zm-4.909 1.064c-.86 0-1.527.617-1.527 1.363 0 .755.667 1.364 1.527 1.364.821 0 1.499-.609 1.499-1.364 0-.746-.678-1.363-1.499-1.363z" class="cls-1"/></svg>