<svg xmlns="http://www.w3.org/2000/svg" preserveAspectRatio="xMidYMid" width="30.031" height="30.031" viewBox="0 0 30.031 30.031"><defs><style>.cls-1{fill:#fff;fill-rule:evenodd}</style></defs><path d="M16.358-.004c-6.927 0-12.773 5.232-13.56 12.073a13.543 13.543 0 0 0 1.501 7.971l-3.133 3.133a4.017 4.017 0 0 0-1.18 2.837 4.026 4.026 0 0 0 4.025 4.019 3.994 3.994 0 0 0 2.78-1.099l.066-.066v-.016l3.131-3.117a13.706 13.706 0 0 0 7.961 1.493c6.837-.796 12.076-6.627 12.076-13.565 0-7.536-6.132-13.663-13.667-13.663zm-5.96 23.324a1.164 1.164 0 0 0-1.427.165v-.009l-3.738 3.748-.057.049c-.32.296-.73.46-1.165.46a1.721 1.721 0 0 1-1.713-1.723c0-.426.164-.885.492-1.214l.008.009 3.739-3.748c.409-.41.467-1.05.122-1.501a11.349 11.349 0 0 1-1.639-5.831L16.301 25.01a11.257 11.257 0 0 1-5.903-1.69zm7.715 1.559L5.143 11.896c.861-5.486 5.616-9.587 11.215-9.587 6.264 0 11.355 5.084 11.355 11.35 0 5.594-4.107 10.366-9.6 11.22zm1.139-12.368c-2.361 0-4.287 1.944-4.287 4.29 0 2.345 1.926 4.28 4.287 4.28 2.345 0 4.28-1.927 4.28-4.28 0-2.346-1.935-4.29-4.28-4.29zm0 6.258a1.963 1.963 0 0 1-1.967-1.968c0-1.075.877-1.969 1.967-1.969 1.075 0 1.968.894 1.968 1.969 0 1.09-.893 1.968-1.968 1.968z" class="cls-1"/></svg>