<svg xmlns="http://www.w3.org/2000/svg" preserveAspectRatio="xMidYMid" width="45.06" height="24.937" viewBox="0 0 45.06 24.937"><defs><style>.cls-1{fill:#fff;fill-rule:evenodd}</style></defs><path d="M17.406 8.139c0-.5.48-.896 1.045-.896.567 0 1.021.396 1.021.896v1.105h2.017V8.139c0-.5.479-.896 1.045-.896s1.034.396 1.034.896v1.105h2.016V8.139c0-.5.456-.896 1.021-.896.591 0 1.07.396 1.07.896v1.105h15.642c.947 0 1.747.667 1.747 1.469 0 .813-.8 1.459-1.747 1.459h-1.771v.271c0 2.929-1.438 5.596-3.726 7.545-.16.157-.369.302-.529.448l2.005 3.21c.271.418.086.959-.405 1.168-.529.229-1.156.083-1.44-.354l-1.856-2.961c-1.932 1.032-4.231 1.627-6.665 1.627H16.139c-2.041 0-3.984-.418-5.681-1.157l-.75 2.313c-.135.458-.701.751-1.267.635-.541-.145-.885-.625-.738-1.104l.898-2.814c-.48-.312-.934-.646-1.365-1.011-2.287-1.927-3.714-4.595-3.714-7.545v-.271H1.739c-.947 0-1.734-.646-1.734-1.459 0-.802.787-1.469 1.734-1.469h1.783V4.157c0-1.135.553-2.167 1.439-2.928C5.847.479 7.076.01 8.441.01c1.316 0 2.546.469 3.432 1.219.885.761 1.45 1.793 1.45 2.928 0 .501-.454.877-1.045.877-.565 0-1.045-.376-1.045-.877 0-.656-.32-1.25-.8-1.688h-.024c-.492-.437-1.217-.698-1.968-.698-.799 0-1.5.261-2.005.698h-.011C5.92 2.907 5.6 3.501 5.6 4.157v5.087h11.806V8.139zm22.05 4.033H5.6v.271c0 2.449 1.181 4.7 3.112 6.305.48.417 1.02.792 1.587 1.126l.134.052c1.636.906 3.616 1.448 5.706 1.448H28.93c2.89 0 5.533-.999 7.44-2.626 1.905-1.605 3.086-3.835 3.086-6.305v-.271z" class="cls-1"/></svg>