<svg xmlns="http://www.w3.org/2000/svg" preserveAspectRatio="xMidYMid" width="30.031" height="30.032" viewBox="0 0 30.031 30.032"><defs><style>.cls-1{fill:#fff;fill-rule:evenodd}</style></defs><path d="M25.628 4.395h-.007A14.931 14.931 0 0 0 15.012-.008C6.731-.008-.016 6.741-.016 15.023a14.94 14.94 0 0 0 4.403 10.594 14.921 14.921 0 0 0 10.625 4.411 14.9 14.9 0 0 0 10.616-4.411 14.932 14.932 0 0 0 4.395-10.594c0-3.854-1.467-7.708-4.395-10.628zM9.593 26.273h-.509a13.045 13.045 0 0 1-3.066-2.272 12.716 12.716 0 0 1-3.723-8.978c0-7.027 5.707-12.727 12.717-12.727 3.255 0 6.501 1.247 8.977 3.723a12.502 12.502 0 0 1 2.263 3.083c.016.156 0 .32 0 .492a12.867 12.867 0 0 1-.18 1.796c-.304 1.681-.936 3.345-1.805 4.912a20.584 20.584 0 0 1-3.427 4.534c-1.369 1.362-2.91 2.542-4.541 3.435-1.574.87-3.231 1.501-4.903 1.805-.623.098-1.23.18-1.803.197zm14.396-2.272c-2.459 2.485-5.722 3.715-8.977 3.715a12.52 12.52 0 0 1-3.026-.361c1.706-.344 3.387-.992 4.968-1.853 1.763-.984 3.411-2.247 4.87-3.682a22.174 22.174 0 0 0 3.657-4.863c.878-1.574 1.525-3.255 1.869-4.969.246 1.001.377 2.001.377 3.035 0 3.247-1.246 6.494-3.738 8.978zM16.176 6.47l-.033-.049c-1.205-1.222-2.91-1.706-4.665-1.525-3.657.385-6.912 3.632-7.289 7.306-.188 1.746.32 3.444 1.526 4.649 1.213 1.222 2.91 1.713 4.664 1.534 1.689-.181 3.452-1.001 4.87-2.428 1.427-1.419 2.247-3.181 2.427-4.87.164-1.739-.32-3.411-1.5-4.617zm.123 4.469c-.156 1.394-.837 2.845-2.034 4.034-1.18 1.198-2.647 1.878-4.033 2.034-1.353.131-2.64-.23-3.542-1.132-.901-.902-1.262-2.181-1.123-3.542.303-3.001 3.042-5.756 6.059-6.052 1.344-.147 2.639.222 3.533 1.124l.025.032c.885.894 1.246 2.174 1.115 3.502z" class="cls-1"/></svg>