<svg xmlns="http://www.w3.org/2000/svg" preserveAspectRatio="xMidYMid" width="29.844" height="29.875" viewBox="0 0 29.844 29.875"><defs><style>.cls-1{fill:#fff;fill-rule:evenodd}</style></defs><path d="M27.669 26.919c0 .797-.278 1.524-.723 2.055-.471.565-1.127.908-1.866.908-.732 0-1.396-.343-1.866-.908a3.251 3.251 0 0 1-.732-2.055l.017-.085.563-9.008-.017-.052v-.034c0-.617.219-1.165.572-1.576.202-.257.462-.445.748-.573v-4.239c-1.059-.189-1.993-.788-2.707-1.662-.832-1.027-1.353-2.431-1.353-3.99 0-1.549.521-2.962 1.353-3.99.857-1.062 2.068-1.721 3.422-1.721 1.362 0 2.556.659 3.429 1.721l.025.051c.824 1.028 1.321 2.415 1.321 3.939 0 1.541-.522 2.963-1.346 3.99-.723.874-1.664 1.473-2.706 1.662v4.239c.286.128.538.316.748.573.344.411.563.959.563 1.576l-.009.086.564 9.059v.034zM1.441 15.436h2.858l.631-.505V7.259c0-1.798-1.194-3.999-1.959-5.207-.622 1.13-1.53 2.963-1.53 3.948v9.436zm3.556 1.251V28.1c0 .48-.176.926-.496 1.251l-.017.009a1.745 1.745 0 0 1-1.228.522H1.769c-.488 0-.917-.206-1.245-.522v-.009A1.827 1.827 0 0 1 .012 28.1V6C.012 4.125 2.323.34 2.323.323A.716.716 0 0 1 3.307.1a.485.485 0 0 1 .185.189H3.5c0 .017 2.859 3.827 2.859 6.97v8.014a.696.696 0 0 1-.328.617l-1.034.797zm-3.556.505V28.1c0 .086.034.172.092.232a.3.3 0 0 0 .236.094h1.487a.356.356 0 0 0 .236-.094.38.38 0 0 0 .092-.232V17.08c-.033-.025-.058-.051-.084-.077a.217.217 0 0 0-.117-.086.223.223 0 0 0-.127-.034H1.752a.294.294 0 0 0-.219.103.28.28 0 0 0-.092.206zM15.782 1.744c0-.411.311-.736.706-.736a.73.73 0 0 1 .723.736v6.593c0 .548-.235 1.062-.596 1.439h-.009c-.362.36-.857.6-1.413.6h-.933c.009.051.018.085.018.128v5.087c.294.128.546.316.756.573.362.411.563.959.563 1.576v.086l.555 9.059v.034c0 .797-.278 1.524-.723 2.055-.471.565-1.127.908-1.866.908-.732 0-1.395-.343-1.866-.908a3.2 3.2 0 0 1-.723-2.055l.008-.085.563-9.008v-.086h-.016c0-.617.218-1.165.571-1.576.202-.257.471-.445.748-.573v-5.087c0-.043.009-.077.017-.128h-.933c-.546 0-1.043-.24-1.412-.6a2.074 2.074 0 0 1-.589-1.439V1.744c0-.411.311-.736.706-.736a.73.73 0 0 1 .723.736v6.593c0 .155.051.309.169.412a.58.58 0 0 0 .353.171V1.744c0-.411.311-.736.706-.736a.73.73 0 0 1 .723.736v7.193h.513V1.744c0-.411.327-.736.714-.736.403 0 .706.325.706.736V8.92a.679.679 0 0 0 .362-.154v-.017a.577.577 0 0 0 .176-.412V1.744zm11.635.89c-.606-.744-1.438-1.198-2.337-1.198-.891 0-1.724.454-2.329 1.198-.639.771-1.026 1.867-1.026 3.066 0 1.216.387 2.295 1.026 3.083.605.719 1.438 1.199 2.329 1.199.899 0 1.731-.48 2.337-1.199.621-.788 1.025-1.867 1.025-3.083 0-1.181-.386-2.252-.992-3.031l-.033-.035zM14.353 28.032a1.71 1.71 0 0 0 .387-1.113l-.555-9.034v-.145a.982.982 0 0 0-.218-.642c-.11-.129-.236-.206-.388-.206h-.016a.468.468 0 0 0-.387.206c-.142.153-.218.385-.218.642v.154l-.564 9.025c0 .446.16.839.379 1.113.21.257.487.394.79.394a.997.997 0 0 0 .79-.394zm-1.395-10.24v.042-.042zm12.912 10.24a1.76 1.76 0 0 0 .386-1.113l-.562-9.034v-.145c0-.257-.076-.489-.21-.642-.11-.129-.236-.206-.396-.206h-.025c-.143 0-.269.077-.378.206-.135.153-.21.385-.21.642v.154l-.564 9.025c0 .446.143.839.37 1.113.219.257.496.394.799.394a.997.997 0 0 0 .79-.394z" class="cls-1"/></svg>