<svg xmlns="http://www.w3.org/2000/svg" preserveAspectRatio="xMidYMid" width="36.969" height="20" viewBox="0 0 36.969 20"><defs><style>.cls-1{fill:#fff;fill-rule:evenodd}</style></defs><path d="M36.119 9.797h-2.093c-.474 0-.855-.349-.855-.779 0-.432.381-.78.855-.78h2.093c.474 0 .855.348.855.78 0 .43-.381.779-.855.779zm-3.587-4.768c-.33.311-.886.311-1.227 0a.711.711 0 0 1 0-1.091l1.464-1.311a.955.955 0 0 1 1.237 0c.34.311.34.797 0 1.1l-1.474 1.302zm-5.72 9.233c-3.236 0-5.885-2.374-5.885-5.235 0-2.889 2.649-5.245 5.885-5.245 3.236 0 5.895 2.366 5.895 5.245 0 2.861-2.659 5.235-5.895 5.235zm0-10.883c-.474 0-.855-.35-.855-.78V.756c0-.422.381-.771.855-.771.484 0 .877.349.877.771v1.843c0 .43-.393.78-.877.78zm-5.71 1.65l-1.463-1.302c-.341-.303-.341-.789 0-1.1.34-.303.896-.303 1.227 0l1.473 1.311c.33.303.33.798 0 1.091a.937.937 0 0 1-1.237 0zm-.628 3.989c0 .43-.391.779-.876.779h-2.051c-.495 0-.887-.349-.887-.779 0-.432.392-.78.887-.78h2.051c.485 0 .876.348.876.78zm-3.103 7.088c.424.202.557.696.331 1.054a3.942 3.942 0 0 1-.443.569c-.166.174-.372.321-.578.477a5.165 5.165 0 0 1-.681.376c-.205.1-.452.183-.72.248l-.032.008a5.472 5.472 0 0 1-.773.111h-.021c-.257.018-.525 0-.792-.028a5.257 5.257 0 0 1-.702-.138l-.031-.018a2.852 2.852 0 0 1-.556.459 3.784 3.784 0 0 1-.681.385c-.226.1-.463.183-.72.256h-.032a5.001 5.001 0 0 1-.772.11h-.022c-.247.019-.515.01-.783-.027a3.457 3.457 0 0 1-.7-.137l-.062-.019a5.505 5.505 0 0 1-.7-.293c-.424-.211-.568-.679-.32-1.055.236-.376.772-.495 1.174-.284.134.064.268.11.423.165l.021.018a3.24 3.24 0 0 0 .835.092 2.27 2.27 0 0 0 .453-.073h.052c.144-.037.257-.092.392-.138.143-.064.257-.137.391-.22.102-.065.206-.175.309-.266.093-.11.185-.211.268-.33.226-.348.762-.486 1.175-.275l.02.009a1.7 1.7 0 0 0 .382.156l.02.009c.155.037.268.064.402.082h.011c.134.019.288.019.443.019.145-.019.299-.037.454-.073l.041-.01c.134-.027.267-.063.381-.137.154-.055.268-.128.402-.22.102-.074.227-.166.299-.257.113-.11.205-.211.268-.311.236-.377.763-.496 1.174-.294zm-4.751-2.119a5.477 5.477 0 0 1-.721.615 6.774 6.774 0 0 1-.876.476c-.278.129-.587.23-.897.313l-.041.009c-.34.082-.681.128-1.02.147-.34.018-.671 0-1.01-.028a5.04 5.04 0 0 1-.917-.202l-.042-.009-.164-.045-.114.109c-.227.22-.474.422-.721.606a5.077 5.077 0 0 1-.856.476 5.025 5.025 0 0 1-.917.312l-.041.018c-.32.074-.67.12-1.01.138a4.48 4.48 0 0 1-1-.037 5.16 5.16 0 0 1-.979-.202 4.105 4.105 0 0 1-.886-.375c-.403-.202-.557-.679-.32-1.045.237-.368.773-.496 1.195-.276.186.101.392.174.588.239.196.054.402.11.628.137.227.019.454.028.681.019.195-.01.422-.046.649-.102h.041c.206-.073.402-.127.608-.202h-.02c.227-.109.402-.21.577-.329.185-.11.33-.248.464-.385.155-.156.278-.312.381-.477.248-.367.784-.495 1.186-.284l.02.009c.186.092.381.165.567.229l.062.019c.186.064.37.1.567.119.226.027.453.027.679.018.217-.01.443-.037.67-.11h.042c.206-.046.412-.12.587-.202.206-.082.402-.183.567-.312.165-.11.329-.248.463-.394v-.009c.155-.147.3-.312.382-.468.247-.376.773-.495 1.196-.284.401.22.546.688.309 1.063-.165.257-.35.496-.557.706zm8.482-.981c.33-.293.897-.293 1.226 0 .341.312.341.808 0 1.101l-1.473 1.302c-.32.312-.876.312-1.226 0-.331-.293-.331-.77 0-1.082l1.473-1.321zm5.71 1.67c.484 0 .877.348.877.769v1.844c0 .431-.393.779-.877.779-.474 0-.855-.348-.855-.779v-1.844c0-.421.381-.769.855-.769zm5.71-1.67l1.473 1.302c.351.312.351.789 0 1.092-.329.303-.886.303-1.226.009l-1.464-1.302c-.34-.303-.34-.789 0-1.101.341-.293.897-.302 1.217 0z" class="cls-1"/></svg>