<svg xmlns="http://www.w3.org/2000/svg" preserveAspectRatio="xMidYMid" width="30" height="30" viewBox="0 0 30 30"><defs><style>.cls-1{fill:#fff;fill-rule:evenodd}</style></defs><path d="M19.097 17.235c.922 0 1.744-.38 2.357-.969l.042-.034a3.414 3.414 0 0 0 .998-2.413c0-.928-.385-1.771-.998-2.396v-.016h-.008a3.368 3.368 0 0 0-2.391-.979c-.923 0-1.779.371-2.383.979a3.411 3.411 0 0 0-.99 2.412c0 .944.369 1.797.99 2.413a3.355 3.355 0 0 0 2.383 1.003zm-1.377-4.817c.345-.337.84-.573 1.377-.573a2.04 2.04 0 0 1 1.401.573c.352.363.57.861.57 1.401 0 .548-.218 1.063-.57 1.408l-.034.026a1.942 1.942 0 0 1-1.367.548 1.922 1.922 0 0 1-1.377-.574 1.934 1.934 0 0 1-.587-1.408c0-.54.219-1.038.587-1.401zm-2.734 5.551a5.8 5.8 0 0 0 4.111 1.704c1.61 0 3.07-.65 4.128-1.704a5.891 5.891 0 0 0 1.694-4.15c0-1.603-.646-3.07-1.694-4.125-1.058-1.055-2.518-1.73-4.128-1.73-1.578 0-3.012.659-4.069 1.687l-.042.043a5.878 5.878 0 0 0-1.695 4.125c0 1.62.654 3.087 1.695 4.15zm1.007-7.272l.024-.033a4.354 4.354 0 0 1 3.08-1.266c1.216 0 2.332.499 3.121 1.299a4.38 4.38 0 0 1 1.283 3.122 4.384 4.384 0 0 1-1.283 3.137 4.411 4.411 0 0 1-3.121 1.292 4.367 4.367 0 0 1-3.104-1.292 4.422 4.422 0 0 1-1.293-3.137c0-1.215.495-2.32 1.293-3.122zM28.813.001H1.176a1.19 1.19 0 0 0-1.175 1.19v25.281c0 .641.529 1.18 1.175 1.18h2.248V28.8c0 .675.529 1.198 1.183 1.198.663 0 1.175-.523 1.175-1.198v-1.148h18.433V28.8c0 .675.52 1.198 1.174 1.198.655 0 1.192-.523 1.192-1.198v-1.148h2.232c.653 0 1.19-.539 1.19-1.18V1.191c0-.65-.537-1.19-1.19-1.19zm-1.176 25.273H2.359V2.38h25.278v22.894zM5.363 19.74l-.043.034a2.196 2.196 0 0 0-.654 1.569c0 .624.251 1.173.654 1.569.403.397.957.641 1.561.641.587 0 1.107-.219 1.501-.591l.051-.05a2.187 2.187 0 0 0 0-3.138 2.313 2.313 0 0 0-.856-.54V7.939a2.237 2.237 0 0 0 1.518-2.108 2.23 2.23 0 0 0-.662-1.569 2.21 2.21 0 0 0-1.552-.65 2.222 2.222 0 0 0-2.215 2.219c0 .615.251 1.172.654 1.577a2.1 2.1 0 0 0 .848.531v11.295a1.987 1.987 0 0 0-.805.506zm.729-13.909c0-.211.076-.414.218-.566a.788.788 0 0 1 .571-.227c.218 0 .42.075.545.227h.009a.842.842 0 0 1 .234.566.808.808 0 0 1-.234.565l-.009.017a.827.827 0 0 1-.545.219.958.958 0 0 1-.571-.219v-.017a.794.794 0 0 1-.218-.565zm.218 14.955l.034-.033a.754.754 0 0 1 .52-.203h.034c.218 0 .403.084.528.236a.748.748 0 0 1 .243.557.779.779 0 0 1-.243.565l-.016.025a.76.76 0 0 1-.529.203.822.822 0 0 1-.571-.228.794.794 0 0 1-.218-.565c0-.219.076-.422.218-.557z" class="cls-1"/></svg>