<svg xmlns="http://www.w3.org/2000/svg" preserveAspectRatio="xMidYMid" width="30" height="30" viewBox="0 0 30 30"><defs><style>.cls-1{fill:#fff;fill-rule:evenodd}</style></defs><path d="M26.522 29.787a.73.73 0 0 1-.997 0 .707.707 0 0 1 0-1.006l2.046-2.053H3.96a.714.714 0 0 1-.718-.701V2.447L1.204 4.483a.706.706 0 0 1-1.015 0 .734.734 0 0 1 0-1.014L3.445.224l.008-.007A.758.758 0 0 1 3.96.005c.128 0 .254.017.339.102h.009a.464.464 0 0 1 .185.135h.008l3.223 3.227a.728.728 0 0 1 .008 1.014.695.695 0 0 1-1.006 0L4.671 2.447v22.861h22.9l-2.046-2.044c-.288-.262-.288-.734 0-1.014a.733.733 0 0 1 .997 0l3.264 3.262h.017a.796.796 0 0 1 .203.515.696.696 0 0 1-.237.524l-.017.009-3.23 3.227zM18.674 10.27h5.133a.723.723 0 0 0 .719-.718c0-.389-.33-.71-.719-.71h-4.075c.143-.143.296-.287.464-.397.517-.363 1.218-.617 1.844-.836 1.159-.389 1.877-1.141 2.19-1.969l.026-.042c.178-.507.22-1.031.126-1.563a3.09 3.09 0 0 0-.575-1.343l-.033-.051a3.166 3.166 0 0 0-2.529-1.208c-.422 0-.845.093-1.217.245l-.059.033c-.406.153-.754.44-1.066.744a3.96 3.96 0 0 0-.702 1.141h.017a3.411 3.411 0 0 0-.254 1.309c0 .389.313.719.71.719.398 0 .728-.33.728-.719 0-.279.033-.557.127-.811h.009c.101-.245.252-.473.413-.659.169-.177.373-.321.6-.431l.026-.016a1.77 1.77 0 0 1 2.072.532l.017.034c.169.219.263.464.313.726a1.54 1.54 0 0 1-.059.811l-.017.051c-.178.456-.592.87-1.328 1.106-.719.254-1.531.566-2.19 1.014-.727.532-1.294 1.2-1.404 2.172-.017.034-.017.076-.017.118a.71.71 0 0 0 .71.718zm-6.358 12.774h5.352a1.19 1.19 0 0 0 1.201-1.182c0-.651-.541-1.2-1.201-1.2h-1.48V7.372c0-.667-.541-1.2-1.184-1.2-.372 0-.693.152-.921.423l-3.391 3.379c-.465.49-.465 1.217.017 1.69a1.17 1.17 0 0 0 1.666 0l1.421-1.419v10.417h-1.48c-.669 0-1.201.549-1.201 1.2 0 .659.532 1.182 1.201 1.182z" class="cls-1"/></svg>