<svg xmlns="http://www.w3.org/2000/svg" preserveAspectRatio="xMidYMid" width="30.152" height="27.25" viewBox="0 0 30.152 27.25"><defs><style>.cls-1{fill:#fff;fill-rule:evenodd}</style></defs><path d="M22.948 8.563a11.7 11.7 0 0 1 1.663 2.994c.204.559.374 1.119.501 1.706a2.9 2.9 0 0 1 1.943-.755c1.699 0 3.09 1.53 3.09 3.395s-1.391 3.403-3.09 3.403c-.738 0-1.409-.288-1.943-.755a11.868 11.868 0 0 1-.501 1.688l-.017.047a11.671 11.671 0 0 1-2.223 3.656c-.951 1.025-2.089 1.874-3.354 2.442a9.429 9.429 0 0 1-3.947.859 9.395 9.395 0 0 1-3.938-.859c-1.273-.568-2.41-1.417-3.361-2.442a11.655 11.655 0 0 1-2.734-5.372 2.915 2.915 0 0 1-1.926.736c-1.689 0-3.107-1.538-3.107-3.403s1.401-3.395 3.107-3.395c.722 0 1.392.28 1.926.737.12-.578.281-1.129.484-1.688l.018-.028a11.542 11.542 0 0 1 1.664-2.966V.786a.91.91 0 0 1 .126-.458C7.559-.026 8-.11 8.331.142l4.057 3.134v-.243c0-.447.17-.877.45-1.165v-.01a1.43 1.43 0 0 1 1.061-.485h2.343c.408 0 .798.186 1.07.485l.042.065c.238.29.391.681.391 1.11v.243L21.81.142a.679.679 0 0 1 1.002.186c.084.15.136.3.136.458v7.777zM6.871 12.126l-.017.047c-1.358 3.581-.594 7.87 1.927 10.649a9.113 9.113 0 0 0 2.886 2.118 8.288 8.288 0 0 0 3.403.736 8.42 8.42 0 0 0 3.413-.736 9.302 9.302 0 0 0 2.885-2.118 10.314 10.314 0 0 0 1.902-3.133l.018-.056a10.654 10.654 0 0 0 0-7.46v-.01c-1.104-2.919-3.286-4.113-5.543-5.866v.242c0 .448-.171.877-.433 1.176l-.018.009-.017.019a1.423 1.423 0 0 1-1.035.456h-2.343c-.407 0-.789-.186-1.061-.484a1.823 1.823 0 0 1-.45-1.176v-.242c-2.241 1.735-4.421 2.929-5.517 5.829zm9.371-9.177h-2.343c-.026 0-.042.009-.051.028-.016.009-.016.038-.016.056v3.506c0 .02 0 .047.016.057.009.018.025.027.051.027h2.343c.017 0 .034-.009.051-.027a.113.113 0 0 0 .017-.057V3.033c0-.018-.009-.028-.009-.047l-.008-.009c-.017-.019-.034-.028-.051-.028zm2.037 1.837l3.226 2.491v-4.98l-3.226 2.489zM8.628 7.277l3.226-2.491-3.226-2.48v4.971zm-4.346 7.339a1.591 1.591 0 0 0-1.171-.523c-.908 0-1.663.802-1.663 1.81 0 .998.755 1.828 1.663 1.828a1.62 1.62 0 0 0 1.146-.486l.025-.037c.628-.708.628-1.902 0-2.592zm21.594 2.592c.314.317.721.523 1.179.523.909 0 1.665-.821 1.665-1.828 0-1.008-.756-1.81-1.665-1.81-.458 0-.865.205-1.179.523-.636.708-.636 1.864 0 2.592zm-8.395-1.063c-.645 0-1.188.578-1.188 1.306 0 .727.543 1.324 1.188 1.324.671 0 1.206-.597 1.206-1.324 0-.728-.535-1.306-1.206-1.306zm-4.83 0c-.653 0-1.196.578-1.196 1.306 0 .727.543 1.324 1.196 1.324.663 0 1.197-.597 1.197-1.324 0-.728-.534-1.306-1.197-1.306zm6.74 4.505c-.577.624-1.239 1.118-1.986 1.445l-.025.019a5.594 5.594 0 0 1-2.31.503 5.384 5.384 0 0 1-2.325-.522 5.82 5.82 0 0 1-1.987-1.445.676.676 0 0 0-1.018 0 .838.838 0 0 0 0 1.11 7.434 7.434 0 0 0 2.445 1.799 7.042 7.042 0 0 0 2.885.625c1.002 0 1.97-.205 2.853-.606l.025-.019a7.549 7.549 0 0 0 2.453-1.799.821.821 0 0 0 0-1.11.667.667 0 0 0-1.01 0z" class="cls-1"/></svg>