<svg xmlns="http://www.w3.org/2000/svg" preserveAspectRatio="xMidYMid" width="30.031" height="29.781" viewBox="0 0 30.031 29.781"><defs><style>.cls-1{fill:#fff;fill-rule:evenodd}</style></defs><path d="M15.004-.011c3.84 0 7.695 1.448 10.631 4.353v.009-.009l.057.066a14.77 14.77 0 0 1 4.331 10.471c0 8.218-6.734 14.898-15.019 14.898-3.847-.008-7.694-1.456-10.614-4.361l-.065-.057a14.838 14.838 0 0 1-4.332-10.48c0-8.209 6.743-14.89 15.011-14.89zm8.343 5.37c0 1.978-.321 3.939-.977 5.834-1.771 5.127-5.914 9.235-11.081 10.993a17.94 17.94 0 0 1-5.89.96c.181.203.369.406.566.602l.049.048a12.838 12.838 0 0 0 5.299 3.158 20.537 20.537 0 0 0 5.069-1.741c3.889-1.929 7.104-5.11 9.04-8.967a19.221 19.221 0 0 0 1.756-5.028 12.811 12.811 0 0 0-3.831-5.859zM4.341 21.73c2.182.163 4.405-.13 6.497-.846 4.773-1.627 8.588-5.411 10.236-10.139a16.409 16.409 0 0 0 .845-6.443A11.915 11.915 0 0 0 17.67 2.56a13.714 13.714 0 0 1-.59 5.24c-1.354 4.329-4.832 7.796-9.212 9.146-1.706.521-3.51.724-5.283.569a11.968 11.968 0 0 0 1.756 4.215zM3.062 10.551a9.426 9.426 0 0 0 2.099-.545v.007A8.904 8.904 0 0 0 10.1 5.107a9.778 9.778 0 0 0 .541-2.074c-3.495 1.269-6.3 4.043-7.579 7.518zm-.427 1.415c-.23.961-.336 1.936-.336 2.913 0 .415.016.838.057 1.253 1.698.179 3.437 0 5.102-.504 3.938-1.205 7.087-4.329 8.317-8.234.501-1.644.665-3.369.492-5.061a12.804 12.804 0 0 0-4.199.276 9.617 9.617 0 0 1-.689 2.994h.017a10.23 10.23 0 0 1-5.735 5.68c-.959.374-1.993.618-3.026.683zm11.894 15.508c.156.017.32.017.475.017 7.005 0 12.706-5.663 12.706-12.612v-.456c-.286.83-.648 1.636-1.05 2.433-2.075 4.118-5.512 7.527-9.662 9.585-.796.399-1.616.749-2.469 1.033z" class="cls-1"/></svg>