<svg xmlns="http://www.w3.org/2000/svg" preserveAspectRatio="xMidYMid" width="29.809" height="25.969" viewBox="0 0 29.809 25.969"><defs><style>.cls-1{fill:#fff;fill-rule:evenodd}</style></defs><path d="M18.714 10.761c0 2.329 1.604 4.257 3.568 4.257 1.963 0 3.575-1.928 3.575-4.257 0-2.349-1.612-4.267-3.575-4.267-1.957 0-3.568 1.918-3.568 4.267zm3.568-1.446c.662 0 1.192.643 1.192 1.446 0 .783-.53 1.425-1.192 1.425-.655 0-1.193-.642-1.193-1.425 0-.803.538-1.446 1.193-1.446zm7.301 9.577c-.269-.331-.722-.331-.999 0a2.439 2.439 0 0 1-.772.613l-.034.02a1.96 1.96 0 0 1-.864.201 1.9 1.9 0 0 1-.923-.221 2.678 2.678 0 0 1-.781-.613l-.033-.049a3.617 3.617 0 0 0-1.192-.935l-.042-.029a3.198 3.198 0 0 0-2.854.029c-.47.221-.889.563-1.241.984a2.454 2.454 0 0 1-.773.613l-.016.02c-.269.131-.58.201-.89.201-.319 0-.63-.07-.907-.221a2.674 2.674 0 0 1-.78-.613 3.636 3.636 0 0 0-1.226-.984l-.042-.029a3.222 3.222 0 0 0-1.409-.321c-.512 0-.991.131-1.444.35a3.528 3.528 0 0 0-1.192.935l-.05.049a2.656 2.656 0 0 1-.772.613 1.847 1.847 0 0 1-.915.221c-.311 0-.613-.07-.864-.201l-.034-.02a2.454 2.454 0 0 1-.773-.613 3.677 3.677 0 0 0-1.241-.984 3.302 3.302 0 0 0-1.452-.35c-.487 0-.965.11-1.402.321l-.042.029a3.742 3.742 0 0 0-1.234.984h-.008c-.21.261-.462.463-.764.613a1.86 1.86 0 0 1-.906.221c-.386 0-.714.371-.714.834 0 .481.328.862.714.862.503 0 1.007-.12 1.443-.361h.009a3.664 3.664 0 0 0 1.225-.984c.218-.25.496-.461.781-.602l.016-.02a2.016 2.016 0 0 1 1.796.02c.294.141.555.352.772.602.353.432.773.763 1.243.984l.033.04c.437.201.923.321 1.402.321.512 0 1.007-.12 1.452-.361h.008a3.607 3.607 0 0 0 1.234-.984l.034-.029c.201-.242.469-.453.73-.573.294-.141.587-.221.915-.221.31 0 .62.07.881.201l.025.02c.302.141.554.352.78.602.345.432.764.763 1.226.984a3.1 3.1 0 0 0 1.452.361c.504 0 .974-.12 1.402-.321l.058-.04a3.508 3.508 0 0 0 1.226-.984c.218-.25.478-.461.772-.602.276-.141.587-.221.906-.221.319 0 .613.07.89.201l.033.02c.261.12.512.331.731.573l.041.029c.336.432.755.763 1.226.984.453.241.931.361 1.46.361.478 0 .957-.12 1.394-.321l.041-.04c.47-.221.89-.552 1.234-.984.285-.321.285-.844 0-1.185zm-18.414-.862l5.498-3.815.981 2.027c.336.683 1.05.914 1.612.522.57-.392.772-1.245.428-1.907L15.6 6.364l5.44-3.735c.553-.391.746-1.245.419-1.927C21.131.03 20.418-.202 19.848.2l-6.446 4.437c-.562.392-.756 1.245-.42 1.928l.034.08 2.475 5.13-5.497 3.805c-.57.381-.764 1.245-.436 1.927.318.663 1.04.884 1.611.523zm12.472 4.095c-.528 0-1.007.12-1.469.342-.461.231-.873.581-1.225.983a2.3 2.3 0 0 1-.781.623l-.025.02c-.26.12-.57.2-.881.2-.328 0-.621-.08-.915-.22a2.519 2.519 0 0 1-.764-.623l-.042-.04a3.76 3.76 0 0 0-1.191-.943l-.051-.021a3.314 3.314 0 0 0-1.41-.321c-.495 0-.99.12-1.443.342a4.139 4.139 0 0 0-1.234.983 2.433 2.433 0 0 1-.772.623c-.269.14-.579.22-.907.22a2.18 2.18 0 0 1-.881-.2l-.033-.02a2.527 2.527 0 0 1-.773-.623 4.206 4.206 0 0 0-1.225-.983h-.008a3.19 3.19 0 0 0-1.444-.342c-.386 0-.713.381-.713.843 0 .472.327.853.713.853.319 0 .629.081.898.211.311.141.562.362.781.623a4.06 4.06 0 0 0 1.234.984l.041.019c.454.202.915.322 1.41.322a3.35 3.35 0 0 0 1.461-.341 4.136 4.136 0 0 0 1.225-.984c.218-.261.479-.482.772-.623a2.14 2.14 0 0 1 .898-.211c.327 0 .621.071.898.211h.017c.277.141.529.341.747.583l.025.04a3.91 3.91 0 0 0 1.243.984c.453.221.931.341 1.443.341.495 0 .973-.12 1.41-.322l.042-.019a4.025 4.025 0 0 0 1.225-.984c.227-.272.496-.482.781-.623.277-.13.587-.211.923-.211.386 0 .696-.381.696-.853 0-.462-.31-.843-.696-.843z" class="cls-1"/></svg>