<svg xmlns="http://www.w3.org/2000/svg" preserveAspectRatio="xMidYMid" width="30" height="22" viewBox="0 0 30 22"><defs><style>.cls-1{fill:#fff;fill-rule:evenodd}</style></defs><path d="M10.927 16.762h.008a5.7 5.7 0 0 1 4.054-1.687c1.506 0 2.98.601 4.061 1.687a1.175 1.175 0 0 1 0 1.636l-.074.041-3.177 3.208a1.143 1.143 0 0 1-1.613.016l-.017-.016-.016-.017-3.226-3.24a1.18 1.18 0 0 1 0-1.628zm2.579.954l1.483 1.472 1.465-1.472a3.606 3.606 0 0 0-2.948 0zm-4.479-2.87a1.18 1.18 0 0 1-1.629 0 1.146 1.146 0 0 1 0-1.638 10.718 10.718 0 0 1 7.591-3.158c2.824 0 5.584 1.152 7.598 3.158a1.176 1.176 0 0 1 0 1.638 1.201 1.201 0 0 1-1.646 0 8.367 8.367 0 0 0-5.952-2.476 8.339 8.339 0 0 0-5.962 2.476zM5.49 11.292c-.45.437-1.18.437-1.637 0a1.156 1.156 0 0 1 0-1.636 15.76 15.76 0 0 1 11.136-4.639 15.78 15.78 0 0 1 11.136 4.639 1.157 1.157 0 0 1 0 1.62 1.172 1.172 0 0 1-1.638.016 13.4 13.4 0 0 0-9.498-3.955 13.353 13.353 0 0 0-9.499 3.955zM1.953 7.731a1.176 1.176 0 0 1-1.646-.008 1.14 1.14 0 0 1 .016-1.62A20.684 20.684 0 0 1 14.989-.008a20.73 20.73 0 0 1 14.673 6.111c.442.435.442 1.184 0 1.628a1.184 1.184 0 0 1-1.646 0C24.569 4.244 19.885 2.32 14.989 2.32c-4.914 0-9.573 1.924-13.036 5.411z" class="cls-1"/></svg>