<svg xmlns="http://www.w3.org/2000/svg" preserveAspectRatio="xMidYMid" width="27" height="31.969" viewBox="0 0 27 31.969"><defs><style>.cls-1{fill:#fff;fill-rule:evenodd}</style></defs><path d="M11.229 31.227c0 .414-.366.757-.819.757-.463 0-.819-.343-.819-.757 0-.01.038-1.209-.087-2.435-.279-2.812-1.185-2.831-2.439-2.848-1.098-.019-2.37-.055-3.787-.866h-.019c-.453-.289-.742-.578-.926-.884a1.546 1.546 0 0 1-.173-1.028v-.036c.067-.333.164-.577.28-.793.057-.145.105-.253.018-.406-.087-.099-.192-.234-.308-.352l-.028-.036c-.068-.089-.174-.18-.242-.27h-.009a2.41 2.41 0 0 1-.405-1.037c-.039-.316.009-.649.212-.929l-.087-.125a2.22 2.22 0 0 1-.356-1.109 1.92 1.92 0 0 1 .279-1.118l.058-.099-.251-.054c-.317-.073-.606-.181-.838-.343l-.019-.018c-.279-.216-.453-.505-.473-.847v-.135c.039-.514.598-1.199 1.205-1.966l.184-.217.028-.045c.28-.351.569-.721.8-1.073l.039-.026c.164-.271.298-.523.298-.649a3.19 3.19 0 0 0 .039-.668c0-.216-.019-.433-.048-.622a4.179 4.179 0 0 0-.096-.532c-.049-.144-.087-.288-.126-.396-.067-.234-.067-.929.144-1.768.117-.549.319-1.19.608-1.839.945-2.091 2.525-3.498 4.433-4.399C9.706.231 12.337-.102 14.93-.004c2.776.1 5.234.912 7.228 2.345 1.957 1.397 3.45 3.408 4.289 5.905.926 2.713.588 5.148-.443 7.357-1.003 2.164-2.641 4.111-4.366 5.959-.26.27-.386.433-.443.63-.077.253-.058.613.038 1.2.174 1.253.463 2.533.819 3.796.377 1.279.8 2.56 1.224 3.812.126.397-.125.83-.549.948-.424.126-.887-.1-1.012-.496-.424-1.254-.858-2.552-1.214-3.868a28.926 28.926 0 0 1-.887-3.985c-.125-.811-.125-1.316 0-1.767.125-.505.405-.847.8-1.28 1.638-1.731 3.18-3.57 4.096-5.545.887-1.901 1.166-3.975.386-6.301-.742-2.191-2.024-3.949-3.721-5.166-1.735-1.236-3.874-1.929-6.322-2.029-2.323-.09-4.684.199-6.631 1.109-1.561.74-2.872 1.903-3.643 3.634a7.923 7.923 0 0 0-.549 1.568c-.126.577-.183.938-.145 1.01.039.126.077.297.126.496.067.189.105.424.144.658.02.243.048.505.048.793.01.271 0 .568-.028.866-.039.379-.251.812-.54 1.262l-.039.054c-.25.361-.568.784-.887 1.199l-.038.028 1.099 1.286c-.318.397-1.89-.331-2.044-.132l.357.072h.029c.308.062.53.108.742.216l.049.018c.876.46.75.865.038 2.019l-.02.055c-.018.036-.414-3.364-.424-3.318l3.894 1.07c4.337 0 8.867 5.691 8.867 9.73v5.518c0 .694-.627 1.262-1.369 1.262-.732 0-1.359-.568-1.359-1.262v-5.518c0-2.66-3.142-7.564-5.985-7.564L3.21 20.381a.613.613 0 0 0 .174.198l.019.027c.106.144.25.288.376.46.617.848.404 1.317.145 1.884-.058.126-.145.279-.164.432 0 .028 0 .073.019.1.048.081.155.18.357.297 1.031.596 2.082.632 2.949.649 2.12.036 3.614.064 4.038 4.229.145 1.416.106 2.56.106 2.57z" class="cls-1"/></svg>