<svg xmlns="http://www.w3.org/2000/svg" preserveAspectRatio="xMidYMid" width="37.07" height="30.219" viewBox="0 0 37.07 30.219"><defs><style>.cls-1{fill:#fff;fill-rule:evenodd}</style></defs><path d="M33.724 22.528v6.454c0 .676-.647 1.221-1.435 1.221H4.766c-.779 0-1.417-.545-1.417-1.221v-6.454c-.707-.199-1.365-.511-1.921-.996-.88-.745-1.415-1.767-1.415-2.893V16.62c0-2.244 2.184-4.106 4.793-4.106h9.221V8.962c0-.407.374-.736.839-.736h2.821v-.503c-1.324-.9-2.204-2.218-2.204-3.69 0-1.611 1.052-3.014 2.559-3.933.313-.156.687-.156.98.017l.01.018c1.507.893 2.559 2.304 2.559 3.898 0 1.456-.89 2.772-2.185 3.673v.52h2.781c.465 0 .86.329.86.736v3.552h9.221c2.609 0 4.793 1.871 4.793 4.106v2.019c0 1.126-.556 2.148-1.415 2.893-.577.485-1.235.797-1.922.996zM17.687 4.709c0-.398.385-.727.849-.727.476 0 .87.329.87.727v.814-.034c.293-.433.465-.936.465-1.456 0-.935-.525-1.784-1.344-2.391-.799.607-1.325 1.456-1.325 2.391 0 .52.162 1.023.445 1.456v.016l.04.053v-.849zm-1.961 7.805h5.602V9.699h-5.602v2.815zm-10.96 7.788h.161c.607.017 1.223-.139 1.729-.364.576-.26 1.082-.641 1.588-1.143 3.074-2.998 4.914-1.611 7.088.016.94.711 1.982 1.491 3.195 1.491a5.09 5.09 0 0 0 1.83-.346 6.38 6.38 0 0 0 1.587-.919l.071-.061c.728-.58 2.114-1.091 3.529-1.091 1.102 0 2.245.286 3.185 1.057l.081.06c.222.191.445.356.687.503h-.009c.232.138.516.277.798.415.283.113.577.209.9.269.859.182 1.79.182 2.437-.389.364-.295.586-.711.586-1.161V16.62c0-.892-.899-1.663-1.941-1.663H4.806c-1.062 0-1.941.771-1.941 1.663v2.019c0 .45.222.866.575 1.161.375.329.84.467 1.326.502zm1.425 2.339v5.111h24.672v-5.129l-.334-.069a7.331 7.331 0 0 1-1.476-.459h-.021a8.772 8.772 0 0 1-2.234-1.36l-.051-.052c-.323-.251-.768-.347-1.203-.347-.687 0-1.304.209-1.587.433l-.091.061a9.744 9.744 0 0 1-2.336 1.36 8.408 8.408 0 0 1-3.003.546c-2.276 0-3.731-1.1-5.066-2.096-1.021-.754-1.88-1.412-3.074-.234-.728.693-1.517 1.273-2.426 1.68a8.452 8.452 0 0 1-1.77.555z" class="cls-1"/></svg>