<svg xmlns="http://www.w3.org/2000/svg" preserveAspectRatio="xMidYMid" width="17" height="30.187" viewBox="0 0 17 30.187"><defs><style>.cls-1{fill:#fff;fill-rule:evenodd}</style></defs><path d="M16.212 17.171c.123.336-.014.726-.31.867-.295.141-.631-.016-.755-.352a13.485 13.485 0 0 1-.598-2.179 13.269 13.269 0 0 1-.192-2.281c0-.765.061-1.523.192-2.265.138-.757.344-1.492.598-2.172.226-.624.405-1.265.515-1.937.117-.64.178-1.312.178-2.015 0-.703-.061-1.375-.178-2.015a11.021 11.021 0 0 0-.515-1.938c-.117-.311.02-.702.302-.851.296-.14.632.017.763.352.254.688.453 1.422.584 2.171.137.75.212 1.516.212 2.281 0 .766-.075 1.531-.212 2.281a12.49 12.49 0 0 1-.584 2.171 11.39 11.39 0 0 0-.701 3.937c0 .703.061 1.39.178 2.023.117.665.289 1.313.523 1.922zM3.981 1.588c.92 0 1.766.422 2.37 1.117v.008-.008c.612.695.983 1.648.983 2.711 0 1.038-.371 1.991-.983 2.686-.604.687-1.443 1.117-2.37 1.117-.928 0-1.766-.43-2.371-1.117a4.143 4.143 0 0 1-.99-2.686 4.16 4.16 0 0 1 .99-2.711c.605-.695 1.443-1.117 2.371-1.117zm1.003 2.671a1.34 1.34 0 0 0-1.003-.469c-.392 0-.75.18-1.004.469a1.728 1.728 0 0 0-.419 1.157c0 .429.158.835.419 1.124.254.297.612.476 1.004.476a1.32 1.32 0 0 0 1.003-.476 1.72 1.72 0 0 0 .413-1.124c0-.462-.159-.86-.413-1.157zm-3.216 6.468v9.857c0 .609.44 1.094.969 1.094h6.067l4.055 7.967c.254.531.852.703 1.305.406.461-.312.625-.969.357-1.507l-4.287-8.436c-.151-.367-.481-.618-.873-.618H3.706v-8.763c0-.594-.433-1.102-.969-1.102-.529 0-.969.508-.969 1.102zM.572 24.209c-.323 0-.577-.29-.577-.657 0-.374.254-.656.577-.656h7.58c.323 0 .584.282.584.656 0 .367-.261.657-.584.657H.572zm11.365-10.983c0 .367-.261.672-.584.672-.308 0-.57-.305-.57-.672 0-.765.062-1.523.2-2.265.131-.757.33-1.492.584-2.172.226-.624.405-1.265.522-1.937.124-.64.178-1.312.178-2.015 0-.703-.054-1.375-.178-2.015a11.684 11.684 0 0 0-.522-1.938c-.117-.311.027-.702.316-.851.288-.14.625.017.749.352.268.688.46 1.422.597 2.171.138.75.2 1.516.2 2.281 0 .766-.062 1.531-.2 2.281-.137.75-.329 1.484-.597 2.171a14.698 14.698 0 0 0-.522 1.922 11.987 11.987 0 0 0-.173 2.015z" class="cls-1"/></svg>