<svg xmlns="http://www.w3.org/2000/svg" preserveAspectRatio="xMidYMid" width="29.75" height="23.843" viewBox="0 0 29.75 23.843"><defs><style>.cls-1{fill:#fffdfd;fill-rule:evenodd}</style></defs><path d="M29.398 6.959l-3.215-1.542C25.194 1.741 20.759-1.286 15.731.53c-4.237 1.543-5.952 5.925-3.792 9.399-4.518 1.153-5.127 2.623-8.572-.743-.512-.504-1.287-1.651-2.342-.893a.91.91 0 0 0-.396.555c-2.308 8.576 1.979 13.592 9.678 14.76 2.192.331 7.271.346 9.727-.39 6.445-1.874 8.737-7.689 3.577-11.373.841-.591 1.459-1.239 1.904-1.931l3.883-1.874c.099-.065.198-.13.263-.245.182-.302.066-.662-.263-.836zm-8.392 3.943c-.824.352-.865 1.383-.066 1.78 5.424 2.673 3.396 7.495-2.324 8.792-2.621.605-6.051.454-8.606-.036-5.209-.987-8.482-3.971-7.551-10.154l.067.057c5.193 4.051 6.182.807 11.523.252.931-.093 1.36-1.088.709-1.693-3.149-2.948-.792-7.849 3.891-7.849 5.292 0 7.79 6.508 2.357 8.851zm5.251-2.739c.107-.411.14-.844.14-1.247l1.22.577-1.36.67zm-6.817-1.73c0 .44.215.857.544 1.146.339.303.792.476 1.311.476 1.014 0 1.846-.736 1.846-1.622 0-.454-.206-.858-.535-1.132a1.927 1.927 0 0 0-1.311-.49c-1.014 0-1.855.736-1.855 1.622zm2.317 0c0 .223-.215.396-.462.396a.514.514 0 0 1-.33-.115.41.41 0 0 1-.123-.281c0-.223.197-.404.453-.404a.5.5 0 0 1 .322.123c.081.072.14.173.14.281z" class="cls-1"/></svg>