<svg xmlns="http://www.w3.org/2000/svg" preserveAspectRatio="xMidYMid" width="30.062" height="29.969" viewBox="0 0 30.062 29.969"><defs><style>.cls-1{fill:#fff;fill-rule:evenodd}</style></defs><path d="M15.028.001c.672 0 1.28.258 1.722.681.443.424.721 1.003.721 1.646 0 .439-.131.838-.344 1.191a12.528 12.528 0 0 1 6.658 3.299c2.239 2.154 3.633 5.101 3.633 8.376a.67.67 0 0 1-.68.657H3.319c-.377 0-.697-.297-.697-.657v-.016c.008-3.259 1.411-6.206 3.649-8.36a12.531 12.531 0 0 1 6.658-3.299 2.275 2.275 0 0 1-.344-1.191c0-.643.27-1.222.721-1.646a2.48 2.48 0 0 1 1.722-.681zM6.106 29.972c-.385.062-.729-.189-.778-.549a.663.663 0 0 1 .582-.752l9.544-1.317.083-.015c.672-.031 1.197-.549 1.738-1.097l.017-.031.131-.126 5.633-5.642c.229-.25.32-.454.287-.595 0-.031-.025-.063-.041-.087-.033-.015-.058-.038-.091-.046l-.016-.008c-.163-.031-.426.031-.722.251l-5.395 4.027v.016c-.287.204-.59.376-.927.494-.327.117-.68.187-1.041.195l-2.615.141h-.05c-.172 0-.32-.031-.468-.094a.982.982 0 0 1-.442-.321l-.024-.023-.009-.016a1.26 1.26 0 0 1-.196-.423l-.009-.032v-.008a1.256 1.256 0 0 1 .016-.462c.165-.58.239-1.088.222-1.59a5.383 5.383 0 0 0-.394-1.637c-.147-.432-.393-.635-.631-.667a.721.721 0 0 0-.246.032.648.648 0 0 0-.221.156c-.213.219-.304.619-.115 1.128l.008.032c.255.666.328 1.198.255 1.731-.099.541-.345 1.035-.771 1.638a3.75 3.75 0 0 1-1.428 1.246c-.508.227-1.024.345-1.541.447a.698.698 0 0 1-.82-.525c-.074-.345.156-.69.534-.768.434-.079.86-.18 1.196-.345.328-.157.648-.4.91-.791.328-.447.509-.784.558-1.105.041-.298-.016-.635-.18-1.082l-.017-.031c-.394-1.034-.139-1.92.394-2.476H1.17c-.639 0-1.156-.486-1.156-1.097s.517-1.097 1.156-1.097h27.716c.648 0 1.164.486 1.164 1.097s-.516 1.097-1.164 1.097h-4.593l.033.015c.173.204.304.455.37.73.115.533-.066 1.167-.64 1.762l-5.617 5.642-.147.141c-.763.752-1.444 1.457-2.665 1.536l-9.521 1.301zm5.765-11.127c.23.25.426.541.574.924v.008c.287.737.427 1.388.468 2.022.032.556-.041 1.105-.181 1.692l2.296-.117c.246-.008.443-.047.64-.11.196-.078.377-.172.566-.321v.008l5.403-4.027.074-.079h-9.84zm3.649 8.509l.017-.015-.017.015zm1.755-1.112l.017-.031-.017.031zm5.92-6.535l-.443-.815c-.114.345.082.705.443.815zm-.377-11.949a11.251 11.251 0 0 0-7.79-3.095 11.243 11.243 0 0 0-7.774 3.095c-1.853 1.763-3.042 4.137-3.221 6.762h21.983c-.173-2.625-1.37-4.999-3.198-6.762zm-7.044-6.135a1.057 1.057 0 0 0-.746-.298c-.279 0-.558.11-.738.298a.96.96 0 0 0 0 1.418c.172.18.443.29.714.305h.049c.286-.015.532-.125.721-.305.181-.18.304-.431.304-.713 0-.274-.123-.518-.304-.705z" class="cls-1"/></svg>