<svg xmlns="http://www.w3.org/2000/svg" preserveAspectRatio="xMidYMid" width="17.063" height="30.219" viewBox="0 0 17.063 30.219"><defs><style>.cls-1{fill:#fff;fill-rule:evenodd}</style></defs><path d="M3.684 26.882c-.515-.168-.821-.816-.681-1.446.139-.622.667-1.009 1.195-.841l4.839 1.581 4.839-1.581c.522-.168 1.05.219 1.189.841.146.63-.167 1.278-.688 1.446l-1.557.522 1.557.496c.521.168.834.815.688 1.446-.139.63-.667 1.009-1.189.832l-4.839-1.564-4.839 1.564c-.528.177-1.056-.202-1.195-.832-.14-.631.166-1.278.681-1.446l1.571-.496-1.571-.522zm2.656-2.691c-1.718-.673-3.052-1.589-4.033-2.707C1.091 20.122.409 18.456.138 16.69c-.264-1.74-.111-3.582.362-5.398.591-2.32 1.724-4.575 3.198-6.458.215-.303.591-.303.82-.033.153.151.202.403.181.621-.153 1.212-.077 2.061.18 2.675.188.487.502.858.884 1.177 2.371-1.867 1.286-5.617.514-8.241L6.249.949c-.104-.37.063-.773.362-.9a.495.495 0 0 1 .507.06c1.801 1.277 2.997 2.606 3.789 4.203.647 1.295 1.023 2.742 1.259 4.424.063-.101.118-.211.167-.32.18-.404.229-.916.18-1.463-.048-.386.181-.723.501-.79a.529.529 0 0 1 .424.143c1.655 1.538 2.809 3.792 3.323 6.18.313 1.43.411 2.901.23 4.306-.167 1.429-.598 2.783-1.335 3.935-.862 1.345-2.114 2.388-3.824 2.943-.306.101-.626-.134-.716-.505a.8.8 0 0 1 .077-.555c.458-.907.681-1.555.729-2.211l.008-.185a6.66 6.66 0 0 1-.751 1.353c-.564.791-1.12 1.145-1.669 1.464-.257.151-.542.05-.695-.194-.897-1.244-1.203-2.766-1.279-3.893-.473.825-.862 2.22-.452 4.407.076.369-.126.756-.438.857a.61.61 0 0 1-.306-.017zM3.107 20.45c.681.764 1.564 1.438 2.669 1.983-.347-4.035 1.822-5.591 2.052-5.726a.487.487 0 0 1 .375-.109c.32.042.542.395.514.791 0 0-.292 2.311.71 4.095.299-.203.583-.446.869-.842.438-.621.883-1.588 1.335-3.203.062-.236.215-.429.424-.496.32-.101.639.151.709.521.264 1.278.389 2.169.327 3.061a4.875 4.875 0 0 1-.216 1.16 5.657 5.657 0 0 0 1.85-1.833c.597-.941.959-2.068 1.112-3.262.139-1.22.062-2.506-.209-3.768-.354-1.631-1.05-3.195-2.037-4.439a3.476 3.476 0 0 1-.215.698 3.382 3.382 0 0 1-1.377 1.539.534.534 0 0 1-.23.092c-.319.042-.604-.227-.646-.63-.188-2.01-.528-3.633-1.224-5.038-.472-.942-1.119-1.799-1.995-2.606.744 2.917 1.092 6.331-1.829 8.265-.18.152-.417.152-.618.017-.709-.504-1.287-1.11-1.634-2.009a4.9 4.9 0 0 1-.334-1.38 16.833 16.833 0 0 0-1.877 4.381c-.417 1.606-.556 3.221-.326 4.726.229 1.48.806 2.859 1.821 4.012z" class="cls-1"/></svg>