<svg xmlns="http://www.w3.org/2000/svg" preserveAspectRatio="xMidYMid" width="29.85" height="19.031" viewBox="0 0 29.85 19.031"><defs><style>.cls-1{fill:#fff;fill-rule:evenodd}</style></defs><path d="M21.258 2.178v2.83c0 .097 0 .41.034.862a6.212 6.212 0 0 1 2.06-.33c1.79 0 3.413.749 4.59 1.968a6.823 6.823 0 0 1 1.916 4.77 6.817 6.817 0 0 1-1.916 4.763c-1.177 1.228-2.8 1.977-4.59 1.977a6.353 6.353 0 0 1-4.607-1.977 6.842 6.842 0 0 1-1.909-4.692 2.025 2.025 0 0 1-.563 1.323 1.712 1.712 0 0 1-.63.435v1.359h.336c.395 0 .714.34.714.749 0 .4-.319.731-.714.731h-2.093a.73.73 0 0 1-.714-.731c0-.409.328-.749.714-.749h.328v-1.359a1.868 1.868 0 0 1-.631-.435l-.033-.053a1.982 1.982 0 0 1-.53-1.27c-.017 1.828-.731 3.492-1.908 4.692l-.034.044a6.334 6.334 0 0 1-9.154-.044h-.017a6.853 6.853 0 0 1-1.892-4.763c0-1.862.716-3.552 1.901-4.77l.05-.044A6.356 6.356 0 0 1 6.513 5.54c.984 0 1.926.217 2.75.627l.79-1.219L8.658 2.44H7.136a.72.72 0 0 1-.715-.732c0-.4.311-.74.715-.74h4.547c.387 0 .699.34.699.74 0 .401-.312.732-.699.732h-1.395l1.009 1.794h8.541V2.109c.016-.557.243-1.08.614-1.462.386-.384.916-.645 1.487-.645h.824c.564 0 1.093.261 1.48.645.386.391.605.931.605 1.531 0 .61-.219 1.133-.605 1.533l-.051.044a2.043 2.043 0 0 1-1.429.592.727.727 0 0 1-.715-.74.73.73 0 0 1 .715-.731.723.723 0 0 0 .454-.175l.017-.035a.71.71 0 0 0 .202-.488.787.787 0 0 0-.202-.504.75.75 0 0 0-.471-.192h-.824a.766.766 0 0 0-.478.192.765.765 0 0 0-.203.487v.017zm.177 5.208c.135 1.062.387 2.298.807 3.273a1.916 1.916 0 0 1 1.11-.348c.513 0 .991.209 1.337.557v.018c.344.357.563.835.563 1.392 0 .541-.219 1.038-.563 1.394a1.898 1.898 0 0 1-1.337.574 1.887 1.887 0 0 1-1.346-.574 1.964 1.964 0 0 1-.571-1.394v-.069c-.689-1.131-1.076-2.655-1.311-4.022-.118.104-.244.209-.337.322l-.033.044a5.294 5.294 0 0 0-1.505 3.725c0 1.455.571 2.77 1.505 3.718.916.95 2.185 1.551 3.598 1.551 1.386 0 2.673-.601 3.589-1.551v.01-.01c.933-.948 1.488-2.263 1.488-3.718 0-1.462-.555-2.768-1.488-3.725a4.972 4.972 0 0 0-3.589-1.542c-.69 0-1.329.131-1.917.375zm-1.496-.836a8.942 8.942 0 0 1-.076-.836h-7.759l.841 1.497a.765.765 0 0 1-.253 1.011.712.712 0 0 1-.975-.279l-.874-1.568-.37.541c.235.191.454.383.639.592a6.849 6.849 0 0 1 1.908 4.701c.017-.523.244-.992.563-1.341.177-.174.395-.313.631-.426V9.075h-.328c-.386 0-.714-.331-.714-.74 0-.401.328-.74.714-.74h2.093c.395 0 .714.339.714.74 0 .409-.319.74-.714.74h-.336v1.367c.244.113.462.252.63.426l.051.071c.294.321.487.765.512 1.253a6.823 6.823 0 0 1 1.909-4.684l.05-.044a5.34 5.34 0 0 1 1.144-.914zM9.699 8.152l-1.79 2.787c.328.347.513.818.513 1.339 0 .541-.219 1.038-.555 1.394a1.89 1.89 0 0 1-1.354.574 1.898 1.898 0 0 1-1.344-.574l-.042-.053a1.96 1.96 0 0 1-.505-1.341c0-.557.202-1.035.547-1.41a1.887 1.887 0 0 1 1.344-.557h.11l1.85-2.908a5.152 5.152 0 0 0-1.96-.392A4.99 4.99 0 0 0 2.95 8.509l-.034.044a5.354 5.354 0 0 0-1.488 3.725c0 1.455.571 2.77 1.488 3.718v.01c.933.94 2.193 1.541 3.597 1.541a4.958 4.958 0 0 0 3.574-1.507l.033-.044c.925-.948 1.48-2.263 1.48-3.718 0-1.462-.555-2.768-1.48-3.725v-.01c-.143-.13-.269-.27-.421-.391zm-2.84 3.761a.475.475 0 0 0-.346-.139.477.477 0 0 0-.335.139.505.505 0 0 0-.143.365c0 .123.05.245.109.332l.034.035a.494.494 0 0 0 .335.121.436.436 0 0 0 .346-.139.51.51 0 0 0 .15-.349.593.593 0 0 0-.15-.365zm16.821 0a.449.449 0 0 0-.328-.139.519.519 0 0 0-.353.139.575.575 0 0 0-.143.365c0 .141.05.262.143.349v.018a.523.523 0 0 0 .353.121.464.464 0 0 0 .328-.121.559.559 0 0 0 .159-.367c0-.156-.067-.261-.159-.365zm-8.398 0a.496.496 0 0 0-.699 0c-.167.192-.185.506-.024.697l.024.035a.498.498 0 0 0 .699 0 .593.593 0 0 0 .016-.714l-.016-.018z" class="cls-1"/></svg>