<svg xmlns="http://www.w3.org/2000/svg" preserveAspectRatio="xMidYMid" width="9.97" height="30.031" viewBox="0 0 9.97 30.031"><defs><style>.cls-1{fill:#fff;fill-rule:evenodd}</style></defs><path d="M-.011 13.755c0-1.778.466-2.679 1.58-3.646l.059-.049c.432-.394.872-.82.872-2.328V1.143c0-.64.425-1.156.924-1.156h3.12c.505 0 .931.516.931 1.156v6.589c0 1.574.472 1.984.93 2.377.801.688 1.574 1.361 1.574 3.646v15.122c0 .639-.413 1.155-.918 1.155H.913c-.505 0-.924-.516-.924-1.155V13.755zm1.848 10.179H8.13v-8.482H1.837v8.482zM8.13 25.32H1.837v2.401H8.13V25.32zM2.624 12.002c-.4.336-.78.663-.787 1.729v.328H8.13v-.304c0-1.073-.38-1.417-.78-1.753v-.008c-.773-.664-1.579-1.369-1.717-3.565H4.328c-.131 2.155-.904 2.876-1.658 3.524l-.046.049zM5.62 7.035V2.299H4.354v4.736H5.62z" class="cls-1"/></svg>