<svg xmlns="http://www.w3.org/2000/svg" preserveAspectRatio="xMidYMid" width="30" height="31" viewBox="0 0 30 31"><defs><style>.cls-1{fill:#fff;fill-rule:evenodd}</style></defs><path d="M28.46 1.789l-4.924 1.655a279.315 279.315 0 0 0-5.53-1.57A166.742 166.742 0 0 0 12.058.411a10.055 10.055 0 0 0-2.826-.424c-5.055 0-9.241 3.919-9.241 8.692 0 3.149 1.844 6.074 4.776 7.591l-1.884 8.545c-.23 1.048.483 2.079 1.597 2.287l1.483.285a3.136 3.136 0 0 1-.868 1.378 3.452 3.452 0 0 1-2.392.939c-.385 0-.689.301-.689.639 0 .37.304.662.689.662 1.31 0 2.506-.5 3.366-1.316a4.47 4.47 0 0 0 1.254-2.041l2.122.393.016.008c1.09.208 2.188-.446 2.434-1.486v-.023l.057-.3c.189-.855-.27-1.748-1.131-2.117l1.533-6.952c1.941-.469 5.587-1.563 8.265-2.387 1.426-.439 2.515-.785 2.843-.885l4.932 1.64c.14.069.286.1.451.1.638 0 1.155-.501 1.155-1.102V2.813c0-.724-.787-1.263-1.54-1.024zm-5.571 10.054c-.656.17-1.713.493-2.966.878-3.039.908-7.291 2.202-8.774 2.487-.5.084-.844.476-.918.938l-1.876 8.531c-.089.393.066.777.361 1.016l-1.287-.239c-.827-.153-1.63-.308-2.252-.408l2.015-9.161c.106-.524-.181-1.001-.68-1.201-2.532-1.024-4.211-3.41-4.211-6.005 0-3.565 3.138-6.505 6.931-6.505.737 0 1.466.1 2.154.316l.098.03c1.934.423 3.916.924 5.9 1.447 1.933.509 3.751 1.04 5.505 1.548v6.328zm4.801 1.178l-3.409-1.154V5.5l3.409-1.132v8.653zM9.273 3.767c-1.385 0-2.647.509-3.548 1.363-.892.87-1.466 2.032-1.466 3.333 0 1.302.574 2.48 1.466 3.334.901.855 2.163 1.378 3.548 1.378a5.178 5.178 0 0 0 3.555-1.378c.893-.854 1.458-2.032 1.458-3.334 0-1.301-.565-2.463-1.458-3.333-.917-.854-2.162-1.363-3.555-1.363zm2.572 7.106a3.81 3.81 0 0 1-2.572.994 3.774 3.774 0 0 1-2.564-.994 3.277 3.277 0 0 1-1.065-2.41c0-.938.409-1.793 1.065-2.409a3.773 3.773 0 0 1 2.564-.993c.999 0 1.909.385 2.572.993.655.616 1.066 1.471 1.066 2.409 0 .947-.411 1.802-1.066 2.41z" class="cls-1"/></svg>