<svg xmlns="http://www.w3.org/2000/svg" width="35" height="35" viewBox="0 0 35 35"><path data-name="Фигура 8" class="ic--poster" d="M18.99 17a2.26 2.26 0 0 0 1.62.68 2.21 2.21 0 0 0 1.62-.68 2.266 2.266 0 0 0 .68-1.61 2.3 2.3 0 0 0-.68-1.61v-.01a2.294 2.294 0 0 0-3.24 0v.01a2.293 2.293 0 0 0-.67 1.61 2.257 2.257 0 0 0 .67 1.61zm1.13-2.09l.02-.01a.711.711 0 0 1 .47-.19.691.691 0 0 1 .47.19l.02.01a.691.691 0 0 1 .18.48.673.673 0 0 1-.2.48.656.656 0 0 1-.47.2.763.763 0 0 1-.49-.2.737.737 0 0 1-.19-.48.7.7 0 0 1 .19-.48zM12.78 17a2.243 2.243 0 0 0 1.62.68 2.193 2.193 0 0 0 1.62-.68 2.266 2.266 0 0 0 .68-1.61 2.3 2.3 0 0 0-.68-1.61l-.01-.01a2.275 2.275 0 0 0-1.61-.67 2.335 2.335 0 0 0-1.62.67v.01a2.26 2.26 0 0 0-.68 1.61 2.226 2.226 0 0 0 .68 1.61zm1.13-2.09l.02-.01a.711.711 0 0 1 .47-.19.7.7 0 0 1 .48.19v.01a.618.618 0 0 1 .19.48.664.664 0 0 1-.19.48.68.68 0 0 1-.48.2.763.763 0 0 1-.49-.2.737.737 0 0 1-.19-.48.7.7 0 0 1 .19-.48zM33.65.01H1.36A1.351 1.351 0 0 0 .01 1.36v32.28A1.353 1.353 0 0 0 1.36 35h32.29A1.353 1.353 0 0 0 35 33.64V1.36A1.351 1.351 0 0 0 33.65.01zM32.3 32.3H2.7V10.56h29.6V32.3zm0-23.36H2.7V2.7h2.66v2a1.345 1.345 0 1 0 2.69 0v-2h4.5v2a1.35 1.35 0 1 0 2.7 0v-2h4.51v2a1.353 1.353 0 0 0 1.36 1.35 1.334 1.334 0 0 0 1.33-1.35v-2h4.52v2a1.345 1.345 0 1 0 2.69 0v-2h2.64v6.24zM25.2 17a2.266 2.266 0 0 0 1.63.68 2.288 2.288 0 0 0 2.27-2.29 2.243 2.243 0 0 0-.66-1.61v-.01a2.293 2.293 0 0 0-3.24 0v.01a2.284 2.284 0 0 0-.66 1.61A2.249 2.249 0 0 0 25.2 17zm1.13-2.09l.01-.01a.714.714 0 0 1 .97 0v.01a.747.747 0 0 1 .19.48.818.818 0 0 1-.19.48.718.718 0 0 1-.48.2.768.768 0 0 1-.5-.2.737.737 0 0 1-.19-.48.7.7 0 0 1 .19-.48zm-1.13 8.21a2.293 2.293 0 0 0 3.24 0v-.02a2.277 2.277 0 0 0 .66-1.61 2.216 2.216 0 0 0-.66-1.62 2.293 2.293 0 0 0-3.24 0 2.256 2.256 0 0 0-.66 1.62 2.32 2.32 0 0 0 .66 1.61v.02zm1.13-2.1h.01a.665.665 0 0 1 .97 0 .7.7 0 0 1 .19.47.793.793 0 0 1-.19.48.714.714 0 0 1-.97 0h-.01a.737.737 0 0 1-.19-.48.654.654 0 0 1 .19-.47zm-13.55 8.17a2.3 2.3 0 0 0 1.62.68 2.243 2.243 0 0 0 1.61-.68h.01a2.258 2.258 0 0 0 0-3.23l-.01-.01a2.275 2.275 0 0 0-1.61-.67 2.335 2.335 0 0 0-1.62.67v.01a2.284 2.284 0 0 0-.68 1.62 2.26 2.26 0 0 0 .68 1.61zm1.13-2.09l.02-.01a.711.711 0 0 1 .47-.19.7.7 0 0 1 .48.19v.01a.618.618 0 0 1 .19.48.611.611 0 0 1-.19.47.625.625 0 0 1-.48.2.634.634 0 0 1-.47-.2h-.02a.689.689 0 0 1 0-.95zm-7.34-3.98a2.4 2.4 0 0 0 1.62.67 2.336 2.336 0 0 0 1.61-.67v-.02a2.3 2.3 0 0 0 .68-1.61 2.232 2.232 0 0 0-.68-1.62 2.251 2.251 0 0 0-1.61-.67 2.31 2.31 0 0 0-1.62.67 2.224 2.224 0 0 0-.67 1.62 2.286 2.286 0 0 0 .67 1.61v.02zm1.13-2.1h.01a.629.629 0 0 1 .48-.21.615.615 0 0 1 .48.21.583.583 0 0 1 .19.47.648.648 0 0 1-.19.48.672.672 0 0 1-.48.19.69.69 0 0 1-.48-.19H7.7a.737.737 0 0 1-.19-.48.654.654 0 0 1 .19-.47zm-1.13 8.17a2.319 2.319 0 0 0 1.62.68 2.284 2.284 0 0 0 1.61-3.91v-.01a2.293 2.293 0 0 0-1.61-.67 2.354 2.354 0 0 0-1.62.67v.01a2.275 2.275 0 0 0-.67 1.62 2.251 2.251 0 0 0 .67 1.61zM7.7 27.1l.01-.01a.737.737 0 0 1 .48-.19.717.717 0 0 1 .48.19v.01a.618.618 0 0 1 .19.48.611.611 0 0 1-.19.47.641.641 0 0 1-.48.2.657.657 0 0 1-.48-.2H7.7a.689.689 0 0 1 0-.95zm11.29-3.98a2.294 2.294 0 0 0 3.24 0v-.02a2.339 2.339 0 0 0 .68-1.61 2.272 2.272 0 0 0-.68-1.62 2.294 2.294 0 0 0-3.24 0 2.264 2.264 0 0 0-.67 1.62 2.329 2.329 0 0 0 .67 1.61v.02zm1.13-2.1h.02a.609.609 0 0 1 .47-.21.594.594 0 0 1 .47.21h.02a.649.649 0 0 1 .18.47.729.729 0 0 1-.18.48h-.02a.648.648 0 0 1-.47.19.665.665 0 0 1-.47-.19h-.02a.737.737 0 0 1-.19-.48.654.654 0 0 1 .19-.47zm-1.13 8.17a2.288 2.288 0 1 0 3.24-3.23v-.01a2.294 2.294 0 0 0-3.24 0v.01a2.317 2.317 0 0 0-.67 1.62 2.293 2.293 0 0 0 .67 1.61zm1.13-2.09l.02-.01a.711.711 0 0 1 .47-.19.691.691 0 0 1 .47.19l.02.01a.691.691 0 0 1 .18.48.684.684 0 0 1-.18.47h-.02a.619.619 0 0 1-.47.2.634.634 0 0 1-.47-.2h-.02a.689.689 0 0 1 0-.95zm-7.34-3.98a2.361 2.361 0 0 0 1.62.67 2.318 2.318 0 0 0 1.61-.67l.01-.02a2.339 2.339 0 0 0 .68-1.61 2.272 2.272 0 0 0-.68-1.62h-.01a2.234 2.234 0 0 0-1.61-.67 2.292 2.292 0 0 0-1.62.67 2.232 2.232 0 0 0-.68 1.62 2.3 2.3 0 0 0 .68 1.61v.02zm1.13-2.1h.02a.609.609 0 0 1 .47-.21.6.6 0 0 1 .48.21.583.583 0 0 1 .19.47.648.648 0 0 1-.19.48.655.655 0 0 1-.48.19.665.665 0 0 1-.47-.19h-.02a.737.737 0 0 1-.19-.48.654.654 0 0 1 .19-.47z"/></svg>