<?xml version="1.0" standalone="no"?>
<!DOCTYPE svg PUBLIC "-//W3C//DTD SVG 20010904//EN"
 "http://www.w3.org/TR/2001/REC-SVG-20010904/DTD/svg10.dtd">
<svg version="1.0" xmlns="http://www.w3.org/2000/svg"
 width="48.000000pt" height="34.000000pt" viewBox="0 0 48.000000 34.000000"
 preserveAspectRatio="xMidYMid meet">
<g transform="translate(0.000000,34.000000) scale(0.100000,-0.100000)" stroke="none">
<path class="ic--spa" d="M207 298 c-38 -58 -50 -103 -43 -152 7 -45 58 -136 76 -136 18 0 69
91 75 134 4 26 1 57 -8 84 -14 41 -57 112 -67 112 -3 0 -18 -19 -33 -42z m64
-39 c27 -53 27 -117 -1 -174 -12 -25 -25 -45 -29 -45 -18 0 -55 87 -55 130 1
45 35 130 54 130 5 0 19 -19 31 -41z"/>
<path class="ic--spa" d="M7 198 c3 -34 11 -74 18 -89 30 -57 127 -117 172 -106 16 3 16 5 -2
11 -110 41 -147 77 -166 160 -7 31 -10 59 -7 62 7 6 65 -22 90 -43 18 -16 43
-9 32 9 -8 13 -104 58 -125 58 -13 0 -15 -10 -12 -62z"/>
<path class="ic--spa" d="M401 239 c-53 -23 -73 -38 -66 -49 3 -5 30 5 61 22 30 17 58 28 60
25 3 -3 0 -31 -6 -62 -17 -84 -57 -122 -165 -160 -35 -13 2 -17 45 -5 51 14
115 70 129 113 6 18 12 56 15 85 5 61 -2 64 -73 31z"/>
</g>
</svg>
