<svg xmlns="http://www.w3.org/2000/svg" width="35" height="35" viewBox="0 0 35 35">
  <path id="Фигура_8" data-name="Фигура 8" class="ic--poster" d="M1252.99,2170a2.26,2.26,0,0,0,1.62.68,2.21,2.21,0,0,0,1.62-.68,2.266,2.266,0,0,0,.68-1.61,2.3,2.3,0,0,0-.68-1.61v-0.01a2.294,2.294,0,0,0-3.24,0v0.01a2.293,2.293,0,0,0-.67,1.61,2.257,2.257,0,0,0,.67,1.61h0Zm1.13-2.09h0l0.02-.01a0.711,0.711,0,0,1,.47-0.19,0.691,0.691,0,0,1,.47.19l0.02,0.01a0.691,0.691,0,0,1,.18.48,0.673,0.673,0,0,1-.2.48,0.656,0.656,0,0,1-.47.2,0.763,0.763,0,0,1-.49-0.2,0.737,0.737,0,0,1-.19-0.48,0.7,0.7,0,0,1,.19-0.48h0Zm-7.34,2.09h0a2.243,2.243,0,0,0,1.62.68,2.193,2.193,0,0,0,1.62-.68,2.266,2.266,0,0,0,.68-1.61,2.3,2.3,0,0,0-.68-1.61l-0.01-.01a2.275,2.275,0,0,0-1.61-.67,2.335,2.335,0,0,0-1.62.67v0.01a2.26,2.26,0,0,0-.68,1.61,2.226,2.226,0,0,0,.68,1.61h0Zm1.13-2.09h0l0.02-.01a0.711,0.711,0,0,1,.47-0.19,0.7,0.7,0,0,1,.48.19v0.01a0.618,0.618,0,0,1,.19.48,0.664,0.664,0,0,1-.19.48,0.68,0.68,0,0,1-.48.2,0.763,0.763,0,0,1-.49-0.2,0.737,0.737,0,0,1-.19-0.48,0.7,0.7,0,0,1,.19-0.48h0Zm19.74-14.9h-32.29a1.351,1.351,0,0,0-1.35,1.35v32.28a1.353,1.353,0,0,0,1.35,1.36h32.29a1.353,1.353,0,0,0,1.35-1.36v-32.28a1.351,1.351,0,0,0-1.35-1.35h0Zm-1.35,32.29h-29.6v-21.74h29.6v21.74h0Zm0-23.36h-29.6v-6.24h2.66v2a1.345,1.345,0,1,0,2.69,0v-2h4.5v2a1.35,1.35,0,1,0,2.7,0v-2h4.51v2a1.353,1.353,0,0,0,1.36,1.35,1.334,1.334,0,0,0,1.33-1.35v-2h4.52v2a1.345,1.345,0,1,0,2.69,0v-2h2.64v6.24h0Zm-7.1,8.06h0a2.266,2.266,0,0,0,1.63.68,2.288,2.288,0,0,0,2.27-2.29,2.243,2.243,0,0,0-.66-1.61v-0.01a2.293,2.293,0,0,0-3.24,0v0.01a2.284,2.284,0,0,0-.66,1.61,2.249,2.249,0,0,0,.66,1.61h0Zm1.13-2.09h0l0.01-.01a0.714,0.714,0,0,1,.97,0v0.01a0.747,0.747,0,0,1,.19.48,0.818,0.818,0,0,1-.19.48,0.718,0.718,0,0,1-.48.2,0.768,0.768,0,0,1-.5-0.2,0.737,0.737,0,0,1-.19-0.48,0.7,0.7,0,0,1,.19-0.48h0Zm-1.13,8.21h0a2.293,2.293,0,0,0,3.24,0v-0.02a2.277,2.277,0,0,0,.66-1.61,2.216,2.216,0,0,0-.66-1.62h0a2.293,2.293,0,0,0-3.24,0h0a2.256,2.256,0,0,0-.66,1.62,2.32,2.32,0,0,0,.66,1.61v0.02h0Zm1.13-2.1h0.01a0.665,0.665,0,0,1,.97,0,0.7,0.7,0,0,1,.19.47,0.793,0.793,0,0,1-.19.48h0a0.714,0.714,0,0,1-.97,0h-0.01a0.737,0.737,0,0,1-.19-0.48,0.654,0.654,0,0,1,.19-0.47h0Zm-13.55,8.17h0a2.3,2.3,0,0,0,1.62.68,2.243,2.243,0,0,0,1.61-.68h0.01a2.258,2.258,0,0,0,0-3.23l-0.01-.01a2.275,2.275,0,0,0-1.61-.67,2.335,2.335,0,0,0-1.62.67v0.01a2.284,2.284,0,0,0-.68,1.62,2.26,2.26,0,0,0,.68,1.61h0Zm1.13-2.09h0l0.02-.01a0.711,0.711,0,0,1,.47-0.19,0.7,0.7,0,0,1,.48.19v0.01a0.618,0.618,0,0,1,.19.48,0.611,0.611,0,0,1-.19.47h0a0.625,0.625,0,0,1-.48.2,0.634,0.634,0,0,1-.47-0.2h-0.02a0.689,0.689,0,0,1,0-.95h0Zm-7.34-3.98h0a2.4,2.4,0,0,0,1.62.67,2.336,2.336,0,0,0,1.61-.67v-0.02a2.3,2.3,0,0,0,.68-1.61,2.232,2.232,0,0,0-.68-1.62h0a2.251,2.251,0,0,0-1.61-.67,2.31,2.31,0,0,0-1.62.67h0a2.224,2.224,0,0,0-.67,1.62,2.286,2.286,0,0,0,.67,1.61v0.02h0Zm1.13-2.1h0.01a0.629,0.629,0,0,1,.48-0.21,0.615,0.615,0,0,1,.48.21,0.583,0.583,0,0,1,.19.47,0.648,0.648,0,0,1-.19.48h0a0.672,0.672,0,0,1-.48.19,0.69,0.69,0,0,1-.48-0.19h-0.01a0.737,0.737,0,0,1-.19-0.48,0.654,0.654,0,0,1,.19-0.47h0Zm-1.13,8.17h0a2.319,2.319,0,0,0,1.62.68,2.284,2.284,0,0,0,1.61-3.91v-0.01a2.293,2.293,0,0,0-1.61-.67,2.354,2.354,0,0,0-1.62.67v0.01a2.275,2.275,0,0,0-.67,1.62,2.251,2.251,0,0,0,.67,1.61h0Zm1.13-2.09h0l0.01-.01a0.737,0.737,0,0,1,.48-0.19,0.717,0.717,0,0,1,.48.19v0.01a0.618,0.618,0,0,1,.19.48,0.611,0.611,0,0,1-.19.47h0a0.641,0.641,0,0,1-.48.2,0.657,0.657,0,0,1-.48-0.2h-0.01a0.689,0.689,0,0,1,0-.95h0Zm11.29-3.98h0a2.294,2.294,0,0,0,3.24,0v-0.02a2.339,2.339,0,0,0,.68-1.61,2.272,2.272,0,0,0-.68-1.62h0a2.294,2.294,0,0,0-3.24,0h0a2.264,2.264,0,0,0-.67,1.62,2.329,2.329,0,0,0,.67,1.61v0.02h0Zm1.13-2.1h0.02a0.609,0.609,0,0,1,.47-0.21,0.594,0.594,0,0,1,.47.21h0.02a0.649,0.649,0,0,1,.18.47,0.729,0.729,0,0,1-.18.48h-0.02a0.648,0.648,0,0,1-.47.19,0.665,0.665,0,0,1-.47-0.19h-0.02a0.737,0.737,0,0,1-.19-0.48,0.654,0.654,0,0,1,.19-0.47h0Zm-1.13,8.17h0a2.288,2.288,0,1,0,3.24-3.23v-0.01a2.294,2.294,0,0,0-3.24,0v0.01a2.317,2.317,0,0,0-.67,1.62,2.293,2.293,0,0,0,.67,1.61h0Zm1.13-2.09h0l0.02-.01a0.711,0.711,0,0,1,.47-0.19,0.691,0.691,0,0,1,.47.19l0.02,0.01a0.691,0.691,0,0,1,.18.48,0.684,0.684,0,0,1-.18.47h-0.02a0.619,0.619,0,0,1-.47.2,0.634,0.634,0,0,1-.47-0.2h-0.02a0.689,0.689,0,0,1,0-.95h0Zm-7.34-3.98h0a2.361,2.361,0,0,0,1.62.67,2.318,2.318,0,0,0,1.61-.67l0.01-.02a2.339,2.339,0,0,0,.68-1.61,2.272,2.272,0,0,0-.68-1.62h-0.01a2.234,2.234,0,0,0-1.61-.67,2.292,2.292,0,0,0-1.62.67h0a2.232,2.232,0,0,0-.68,1.62,2.3,2.3,0,0,0,.68,1.61v0.02h0Zm1.13-2.1h0.02a0.609,0.609,0,0,1,.47-0.21,0.6,0.6,0,0,1,.48.21,0.583,0.583,0,0,1,.19.47,0.648,0.648,0,0,1-.19.48h0a0.655,0.655,0,0,1-.48.19,0.665,0.665,0,0,1-.47-0.19h-0.02a0.737,0.737,0,0,1-.19-0.48,0.654,0.654,0,0,1,.19-0.47h0Z" transform="translate(-1234 -2153)"/>
</svg>
