<svg xmlns="http://www.w3.org/2000/svg" width="28.969" height="40.06" viewBox="0 0 28.969 40.06">
  <path id="Фигура_7" data-name="Фигура 7" class="ic--entertainment" d="M681.03,2165.37a1.5,1.5,0,0,1,.814,1.32c0,0.11-.022.22-0.022,0.33l-3.408,22.64a1.53,1.53,0,0,1-1.528,1.29H657.814a1.528,1.528,0,0,1-1.539-1.37l-3.386-22.68a1.489,1.489,0,0,1,.792-1.53,5.03,5.03,0,0,1,3.342-7.16,5.219,5.219,0,0,1,5.166-4.37c0.132,0,.252.02,0.374,0.02a5.209,5.209,0,0,1,4.749-2.94,5.3,5.3,0,0,1,3.528,1.33,5.041,5.041,0,0,1,1.22,1.62c0.143-.01.309-0.03,0.462-0.03a5.211,5.211,0,0,1,5.166,4.37,5.121,5.121,0,0,1,3.892,4.89,5.258,5.258,0,0,1-.55,2.27h0Zm-7.43,2.82h0v4.17a4.548,4.548,0,0,1,0,7.68v7.9h1.945l2.957-19.75h-4.9Zm-1.87,19.75h0v-6.85a11.476,11.476,0,0,1-3.451.83v6.02h3.451Zm-5.308,0h0v-6.02a11.567,11.567,0,0,1-3.441-.83v6.85h3.441Zm-5.3,0h0v-7.9a4.549,4.549,0,0,1,0-7.68v-4.17h-4.914l2.946,19.75h1.968Zm7.156-19.75h0v2.31a12.109,12.109,0,0,1,3.451.8v-3.11h-3.451Zm-5.3,0h0v3.11a12.208,12.208,0,0,1,3.441-.8v-2.31h-3.441Zm-2.111,8h0c0,5.24,12.971,5.26,12.971,0,0-5.22-12.971-5.22-12.971,0h0Zm1.286-19.33h0a2.087,2.087,0,0,0-1.989,1.48,5.322,5.322,0,0,1,1.891,1.17,5.018,5.018,0,0,1,1.538,3.59,1.53,1.53,0,0,1-1.561,1.52,1.512,1.512,0,0,1-1.539-1.52,2.026,2.026,0,0,0-.638-1.45,2.121,2.121,0,0,0-1.495-.6h-0.021a2.09,2.09,0,0,0-2.111,2.05,2.038,2.038,0,0,0,.626,1.48,2.2,2.2,0,0,0,1.506.6h17.973a2.177,2.177,0,0,0,1.507-.6,2.028,2.028,0,0,0,.615-1.48,2.07,2.07,0,0,0-1.286-1.89,4.42,4.42,0,0,1-.891,1.23l-0.065.08a5.332,5.332,0,0,1-3.694,1.49,1.506,1.506,0,1,1,0-3.01,2.244,2.244,0,0,0,1.506-.61l0.033-.02a2.013,2.013,0,0,0,.55-1.11l0.021-.16v-0.2a2.1,2.1,0,0,0-2.11-2.04h-0.077a4.431,4.431,0,0,1-.33,1.1,1.562,1.562,0,0,1-2.022.8,1.482,1.482,0,0,1-.824-1.96,2.14,2.14,0,0,0,.175-0.84v-0.06l-0.021-.08a2,2,0,0,0-.682-1.35,2.1,2.1,0,0,0-1.429-.54,2.138,2.138,0,0,0-2.133,1.86v0.19a1.94,1.94,0,0,0,.572,1.41l0.044,0.06a2.163,2.163,0,0,0,1.517.61,1.505,1.505,0,1,1,0,3.01,5.386,5.386,0,0,1-3.716-1.49l-0.044-.07a5.2,5.2,0,0,1-1.4-2.65h0Z" transform="translate(-652.875 -2150.91)"/>
</svg>
