<svg xmlns="http://www.w3.org/2000/svg" width="40" height="40" viewBox="0 0 40 40"><path data-name="Фигура 6" class="ic--restaurant" d="M8.122 40a.918.918 0 0 1-1.04-.75.886.886 0 0 1 .778-.99l12.713-1.74h.105a3.968 3.968 0 0 0 2.317-1.48l.022-.02.182-.18 7.493-7.47a.948.948 0 0 0 .382-.79.293.293 0 0 0-.051-.11.363.363 0 0 0-.128-.06l-.007-.01h-.011a1.227 1.227 0 0 0-.953.33l-7.18 5.33v.01a4.877 4.877 0 0 1-1.237.66 4.594 4.594 0 0 1-1.4.27l-3.47.18h-.065a1.628 1.628 0 0 1-.634-.12 1.448 1.448 0 0 1-.578-.43l-.025-.03-.015-.02a1.3 1.3 0 0 1-.262-.55l-.014-.05v-.02a1.343 1.343 0 0 1 .033-.61 6.713 6.713 0 0 0 .276-2.1 7.214 7.214 0 0 0-.509-2.17 1.148 1.148 0 0 0-.843-.87.57.57 0 0 0-.317.04.882.882 0 0 0-.309.2 1.375 1.375 0 0 0-.149 1.49l.014.05a4.236 4.236 0 0 1 .324 2.29 5.235 5.235 0 0 1-1.007 2.16 4.906 4.906 0 0 1-1.921 1.64 8.455 8.455 0 0 1-2.052.6.916.916 0 0 1-1.083-.68.876.876 0 0 1 .716-1.03 6.7 6.7 0 0 0 1.593-.45 3.1 3.1 0 0 0 1.212-1.05 3.77 3.77 0 0 0 .727-1.45 2.861 2.861 0 0 0-.24-1.44l-.015-.03a3.043 3.043 0 0 1 .524-3.29H1.542a1.462 1.462 0 1 1 0-2.92h.6a16.52 16.52 0 0 1 5.23-11.91A17.973 17.973 0 0 1 15.96 5.9a4.048 4.048 0 0 1 .921-4.67 4.57 4.57 0 0 1 6.238 0 4.1 4.1 0 0 1 1.3 2.96 4.035 4.035 0 0 1-.385 1.71 17.991 17.991 0 0 1 8.592 4.53l.079.08a16.491 16.491 0 0 1 5.151 11.83h.611a1.462 1.462 0 1 1 0 2.92h-6.118l.018.03a1.9 1.9 0 0 1 .513.95h-.007a2.541 2.541 0 0 1-.852 2.33l-7.493 7.47-.185.19-.011.01a5.241 5.241 0 0 1-3.528 2.02L8.122 40zM20.947 5.09a1.238 1.238 0 0 0 .4-.9 1.255 1.255 0 0 0-.4-.9 1.4 1.4 0 0 0-1.887 0 1.271 1.271 0 0 0-.4.9 1.254 1.254 0 0 0 .4.9 1.4 1.4 0 0 0 1.887 0zM5.223 22.34h29.558a13.679 13.679 0 0 0-4.256-9.78l-.076-.06a15.42 15.42 0 0 0-20.9 0v-.01a13.656 13.656 0 0 0-4.328 9.85zm10.581 2.92a3.659 3.659 0 0 1 .761 1.22v.01a8.537 8.537 0 0 1 .61 2.68 7.429 7.429 0 0 1-.229 2.24l3.063-.15a2.877 2.877 0 0 0 .844-.17 2.969 2.969 0 0 0 .749-.4l7.184-5.34.116-.09H15.8zm4.856 11.26zm2.335-1.48l.022-.02-.022.02zm7.879-8.64a.868.868 0 0 1-.6-1.08l.6 1.08z"/></svg>