<svg version="1" xmlns="http://www.w3.org/2000/svg" width="64" height="45.333" viewBox="0 0 48.000000 34.000000"><path class="ic--spa" d="M20.7 4.2c-3.8 5.8-5 10.3-4.3 15.2.7 4.5 5.8 13.6 7.6 13.6 1.8 0 6.9-9.1 7.5-13.4.4-2.6.1-5.7-.8-8.4C29.3 7.1 25 0 24 0c-.3 0-1.8 1.9-3.3 4.2zm6.4 3.9c2.7 5.3 2.7 11.7-.1 17.4-1.2 2.5-2.5 4.5-2.9 4.5-1.8 0-5.5-8.7-5.5-13 .1-4.5 3.5-13 5.4-13 .5 0 1.9 1.9 3.1 4.1z"/><path class="ic--spa" d="M.7 14.2c.3 3.4 1.1 7.4 1.8 8.9 3 5.7 12.7 11.7 17.2 10.6 1.6-.3 1.6-.5-.2-1.1-11-4.1-14.7-7.7-16.6-16-.7-3.1-1-5.9-.7-6.2.7-.6 6.5 2.2 9 4.3 1.8 1.6 4.3.9 3.2-.9C13.6 12.5 4 8 1.9 8 .6 8 .4 9 .7 14.2zm39.4-4.1c-5.3 2.3-7.3 3.8-6.6 4.9.3.5 3-.5 6.1-2.2 3-1.7 5.8-2.8 6-2.5.3.3 0 3.1-.6 6.2-1.7 8.4-5.7 12.2-16.5 16-3.5 1.3.2 1.7 4.5.5 5.1-1.4 11.5-7 12.9-11.3.6-1.8 1.2-5.6 1.5-8.5.5-6.1-.2-6.4-7.3-3.1z"/></svg>